<svg width="198" height="198" viewBox="0 0 198 198" fill="none" xmlns="http://www.w3.org/2000/svg">
<g id="logo-grande">
<rect id="Rectangle 1" width="198" height="198" rx="16" fill="#0A66C2"/>
<path id="if" d="M63.7869 63.53C57.2002 63.53 51.8802 61.7567 47.8269 58.21C43.9002 54.5367 41.9369 49.9767 41.9369 44.53C41.9369 38.9567 43.9002 34.3333 47.8269 30.66C51.8802 26.9867 57.2002 25.15 63.7869 25.15C70.2469 25.15 75.4403 26.9867 79.3669 30.66C83.4203 34.3333 85.4469 38.9567 85.4469 44.53C85.4469 49.9767 83.4203 54.5367 79.3669 58.21C75.4403 61.7567 70.2469 63.53 63.7869 63.53ZM82.2169 73.41V180H44.9769V73.41H82.2169ZM160.994 104.38H144.274V180H106.844V104.38H95.2542V73.41H106.844V72.46C106.844 58.78 110.834 48.33 118.814 41.11C126.921 33.7633 138.511 30.09 153.584 30.09C156.624 30.09 158.968 30.1533 160.614 30.28V62.01C159.601 61.8833 158.208 61.82 156.434 61.82C152.381 61.82 149.404 62.77 147.504 64.67C145.604 66.4433 144.528 69.3567 144.274 73.41H160.994V104.38Z" fill="white"/>
</g>
</svg>
